<?xml version="1.0" standalone="no"?>
<!DOCTYPE svg PUBLIC "-//W3C//DTD SVG 20010904//EN"
 "http://www.w3.org/TR/2001/REC-SVG-20010904/DTD/svg10.dtd">
<svg version="1.0" xmlns="http://www.w3.org/2000/svg"
 width="2290.000000pt" height="397.000000pt" viewBox="0 0 2290.000000 397.000000"
 preserveAspectRatio="xMidYMid meet">

<g transform="translate(0.000000,397.000000) scale(0.100000,-0.100000)"
fill="#000000" stroke="none">
<path d="M22308 3925 c-15 -8 -29 -24 -33 -35 -3 -11 -33 -40 -66 -65 -52 -41
-59 -50 -59 -82 0 -28 8 -43 39 -72 21 -20 46 -51 55 -69 16 -31 16 -34 -6
-73 -13 -23 -41 -51 -64 -65 -36 -21 -53 -24 -143 -24 -117 0 -133 -11 -86
-60 15 -16 24 -33 20 -40 -9 -15 59 -86 107 -111 37 -19 55 -49 42 -70 -11
-19 -107 -59 -140 -59 -70 0 -73 -81 -4 -138 22 -19 40 -40 40 -48 0 -20 -73
-65 -109 -66 -18 -1 -46 10 -70 26 -86 60 -80 172 15 305 58 81 53 154 -12
208 -28 22 -44 44 -44 58 0 34 50 90 111 124 31 17 61 42 67 56 16 34 15 89
-2 145 -13 43 -15 45 -67 58 -30 7 -87 13 -127 14 -67 1 -75 -1 -103 -28 -27
-25 -29 -33 -28 -89 2 -73 -17 -148 -45 -174 -12 -11 -55 -31 -96 -45 -85 -28
-93 -40 -65 -109 11 -26 17 -70 17 -117 0 -41 5 -81 11 -88 8 -10 27 -11 74
-6 53 5 64 4 69 -10 8 -21 -18 -41 -72 -55 -66 -17 -73 -36 -49 -133 6 -22 -2
-37 -49 -92 -31 -37 -56 -74 -56 -84 0 -23 -19 -42 -42 -42 -32 0 -40 35 -34
153 17 329 24 415 38 452 13 35 13 45 1 82 -8 24 -29 54 -45 69 -27 22 -39 25
-92 23 -72 -2 -113 -20 -122 -53 -3 -14 5 -47 22 -87 22 -52 29 -86 35 -184 4
-66 11 -140 16 -165 4 -25 6 -109 3 -187 -4 -123 -8 -145 -26 -170 -28 -38
-63 -41 -94 -8 -27 28 -32 75 -45 387 -9 206 -86 379 -186 416 -60 23 -72 -35
-34 -173 15 -55 37 -120 50 -145 14 -29 24 -70 27 -117 4 -53 12 -83 32 -117
26 -44 26 -51 28 -217 2 -123 -1 -174 -9 -176 -24 -8 -52 18 -77 72 -58 122
-125 90 -220 -106 -76 -158 -89 -375 -24 -410 12 -6 49 -9 87 -7 60 3 72 8
126 48 32 24 93 75 134 113 40 38 92 80 115 94 23 14 50 34 61 44 41 37 198
111 265 125 96 20 105 24 194 93 86 67 90 69 188 73 58 3 73 8 107 36 22 18
50 32 61 32 12 0 42 -18 67 -40 34 -29 67 -46 132 -66 81 -25 94 -26 221 -20
204 10 324 20 339 30 7 5 47 12 89 17 102 11 104 15 100 156 -4 152 1 148
-176 148 -136 0 -138 0 -225 -38 -80 -34 -92 -37 -123 -27 -19 6 -38 19 -43
27 -10 19 11 81 54 163 52 98 102 214 114 267 7 28 19 60 26 70 8 10 15 27 15
37 0 24 47 101 88 144 17 18 47 62 67 99 33 57 37 72 33 115 -4 32 -13 57 -28
73 -23 25 -26 25 -179 25 -117 -1 -163 -4 -183 -15z"/>
<path d="M10280 3524 c-36 -15 -99 -30 -140 -34 -53 -5 -89 -15 -122 -34 -50
-29 -88 -69 -88 -93 0 -8 59 -71 130 -140 72 -70 133 -137 136 -149 4 -14 20
-28 45 -38 52 -21 53 -51 2 -72 -20 -9 -51 -27 -68 -40 -18 -13 -39 -24 -49
-24 -9 0 -42 -11 -74 -24 -31 -13 -81 -29 -110 -36 -28 -6 -55 -16 -58 -21 -9
-16 -50 -10 -69 11 -11 13 -16 29 -12 47 3 15 8 44 12 64 10 51 -11 69 -80 69
-45 0 -61 -6 -113 -41 -60 -39 -142 -129 -142 -155 0 -7 -11 -25 -24 -41 -13
-15 -36 -53 -51 -83 -26 -50 -28 -65 -28 -165 -1 -100 2 -115 27 -168 32 -66
67 -93 134 -103 65 -10 159 33 206 93 20 26 36 50 36 55 0 5 11 26 25 47 37
54 137 118 271 172 126 51 250 122 330 189 30 26 135 74 185 84 14 3 41 16 60
29 36 24 107 54 174 73 22 6 61 19 86 29 61 24 99 15 99 -23 0 -28 -31 -64
-149 -176 -39 -37 -46 -39 -109 -41 -37 -2 -79 -7 -93 -13 -52 -21 -73 -83
-86 -252 -3 -41 -12 -86 -21 -100 -61 -100 -95 -140 -205 -246 -90 -87 -142
-129 -184 -148 -32 -16 -61 -33 -65 -40 -11 -17 -9 -95 3 -135 24 -75 39 -100
85 -137 102 -83 124 -107 124 -129 0 -35 -86 -93 -189 -127 -47 -16 -110 -42
-138 -59 -29 -16 -63 -29 -76 -29 -13 0 -47 -7 -75 -15 -40 -12 -55 -23 -68
-47 -25 -48 -30 -147 -10 -189 15 -31 23 -36 74 -47 79 -16 96 -15 144 9 22
11 65 27 94 35 30 7 80 27 112 43 31 16 84 34 117 41 33 7 74 21 90 31 17 9
71 27 120 39 50 12 99 29 110 36 12 9 32 12 52 8 17 -3 48 -1 67 6 44 14 175
30 281 34 44 1 119 6 168 11 85 8 88 9 102 39 49 108 56 148 30 182 -8 10 -15
27 -15 36 0 37 -163 114 -223 105 -41 -5 -104 -21 -252 -63 -173 -50 -185 -51
-214 -20 -21 22 -23 31 -17 78 9 72 24 96 71 122 22 11 49 30 61 41 11 11 40
34 65 51 47 32 67 72 76 150 4 34 0 46 -23 73 -23 28 -32 32 -58 27 -17 -3
-53 -9 -81 -14 -27 -5 -86 -22 -130 -39 -142 -53 -141 -23 1 117 104 102 139
128 272 205 35 21 72 51 82 68 22 36 25 109 7 171 -17 60 4 72 145 80 262 14
333 25 403 59 70 34 135 97 135 130 0 83 -78 190 -187 255 -85 50 -101 55
-149 43 -56 -14 -216 -69 -238 -82 -11 -6 -51 -15 -90 -20 -64 -8 -127 -21
-240 -50 -31 -9 -42 -8 -54 5 -13 13 -11 18 21 48 44 42 54 77 37 142 -40 160
-133 236 -295 242 -67 3 -91 -1 -145 -22z"/>
<path d="M4375 3509 c-85 -34 -147 -114 -131 -167 8 -25 122 -132 140 -132 20
0 86 -58 86 -76 0 -21 -57 -80 -104 -108 -38 -22 -166 -70 -296 -111 -109 -34
-194 -48 -315 -52 -71 -3 -138 -9 -147 -14 -25 -13 -60 -97 -61 -144 -1 -100
90 -195 186 -195 42 0 50 5 114 65 54 52 82 70 138 89 39 14 90 28 115 31 59
8 99 23 133 52 15 12 45 27 66 33 22 6 46 21 54 33 8 13 35 29 58 36 24 7 62
22 84 34 22 11 69 24 105 28 36 5 94 14 130 19 126 20 318 32 600 36 157 2
295 7 308 9 24 6 62 59 62 87 0 9 -10 29 -23 43 -38 45 -130 56 -437 54 -146
-1 -277 -1 -292 0 -34 1 -35 17 -7 97 22 64 21 144 -2 182 -31 50 -156 82
-236 62 -44 -12 -54 -11 -97 9 -64 28 -162 28 -231 0z"/>
<path d="M12635 3458 c-48 -38 -82 -109 -88 -185 -3 -39 -13 -63 -42 -104 -49
-68 -75 -126 -75 -167 0 -40 15 -72 36 -72 8 0 51 34 95 75 44 41 92 83 107
92 15 9 36 25 47 35 17 15 41 18 145 19 130 2 161 10 208 52 20 19 22 29 22
128 0 102 -1 109 -22 121 -37 19 -114 30 -258 34 l-135 4 -40 -32z"/>
<path d="M2230 3473 c-123 -11 -185 -47 -245 -143 -27 -42 -28 -51 -27 -145 3
-115 12 -157 53 -233 16 -30 29 -67 29 -82 0 -44 -27 -121 -59 -165 -45 -62
-65 -143 -56 -229 8 -85 8 -147 -3 -421 -5 -115 -12 -220 -17 -233 -6 -18 -2
-31 16 -55 13 -18 28 -57 35 -87 8 -41 16 -58 33 -66 13 -7 44 -32 70 -57 59
-58 103 -78 226 -106 55 -13 118 -28 140 -33 22 -6 65 -13 95 -15 30 -3 59 -9
65 -14 14 -14 73 -11 106 6 23 12 41 14 79 7 47 -9 51 -7 110 31 42 28 62 48
65 66 3 14 10 45 15 69 14 62 13 77 -14 130 -24 48 -60 86 -107 116 -45 28
-133 30 -273 6 -93 -16 -149 -21 -205 -17 -98 7 -108 11 -132 60 -19 36 -20
54 -17 191 l3 151 38 68 c21 39 37 82 37 100 0 63 19 104 64 141 40 32 53 37
121 43 41 3 78 10 81 14 3 5 21 9 39 9 40 0 172 34 211 55 15 7 39 33 55 57
26 38 29 51 29 123 -1 73 -3 83 -28 111 -23 27 -40 34 -112 48 -123 23 -182
21 -217 -7 -38 -32 -98 -67 -112 -67 -20 0 -71 63 -71 87 0 13 19 41 48 70 81
80 102 126 102 219 l0 80 -42 41 c-33 31 -60 46 -114 62 -39 12 -73 20 -75 19
-2 0 -20 -3 -39 -5z"/>
<path d="M16462 3449 c-23 -4 -64 -19 -90 -33 -63 -33 -96 -47 -242 -101 -69
-25 -139 -53 -157 -61 -17 -8 -55 -19 -85 -24 -226 -41 -301 -97 -254 -189 17
-32 81 -91 99 -91 31 0 147 -146 147 -185 0 -7 11 -27 25 -43 33 -39 33 -85
-1 -134 -15 -21 -27 -38 -28 -38 0 0 -46 -10 -101 -21 -55 -12 -120 -21 -145
-20 -35 1 -57 -6 -93 -29 l-47 -30 0 -100 c0 -119 2 -122 114 -174 92 -43 146
-89 146 -123 0 -17 -21 -49 -65 -98 -36 -40 -65 -78 -65 -84 0 -6 -14 -18 -31
-26 -16 -9 -47 -31 -67 -49 -85 -76 -167 -113 -280 -125 -46 -5 -80 -15 -92
-26 -28 -26 -36 -80 -17 -120 19 -39 39 -44 183 -44 83 0 118 5 200 30 54 16
119 35 144 42 72 21 163 86 214 152 110 144 133 175 158 219 24 41 32 46 62
46 28 0 39 -7 58 -32 63 -90 100 -130 156 -165 28 -18 52 -37 52 -41 0 -4 34
-35 77 -67 42 -33 87 -69 99 -80 13 -11 54 -42 91 -70 37 -27 88 -71 114 -96
147 -146 365 -173 684 -86 114 32 159 49 183 70 10 9 32 22 50 28 34 12 50 42
32 64 -14 17 -95 45 -132 45 -16 0 -45 8 -66 18 -20 10 -66 26 -102 36 -180
49 -545 217 -617 284 -105 97 -178 158 -204 171 -16 8 -29 18 -29 22 0 4 -43
42 -95 84 -113 91 -122 104 -106 156 21 68 108 125 239 155 37 8 105 35 152
58 92 47 119 79 120 144 0 26 -5 34 -27 43 -16 6 -42 18 -59 26 -32 15 -152
14 -277 -3 -61 -8 -119 13 -171 61 -66 60 -36 108 87 137 72 16 129 51 198
121 85 87 97 121 93 264 -1 56 -5 106 -8 112 -8 13 -97 31 -144 30 -20 -1 -56
-5 -80 -10z"/>
<path d="M6930 3407 c-26 -9 -42 -24 -62 -62 -15 -27 -28 -58 -28 -68 0 -33
-53 -182 -74 -209 -12 -15 -29 -38 -38 -51 -10 -14 -49 -46 -88 -72 -92 -61
-104 -80 -97 -152 5 -44 12 -63 35 -87 93 -98 130 -304 82 -458 -13 -41 -20
-92 -20 -144 0 -77 -1 -81 -32 -111 -53 -49 -192 -110 -227 -98 -89 28 -241
-138 -241 -262 0 -73 6 -77 94 -70 77 7 160 35 205 69 13 10 40 18 63 18 44 0
51 -11 62 -100 5 -38 2 -71 -9 -107 -14 -47 -14 -56 0 -82 8 -16 12 -37 9 -45
-9 -24 16 -85 42 -102 42 -28 71 -12 89 49 9 28 18 72 22 97 11 88 67 262 95
299 10 13 18 29 18 35 0 16 44 48 100 73 53 24 84 53 113 107 27 47 51 66 68
49 35 -35 47 -318 16 -366 -31 -48 -58 -33 -99 56 -15 33 -22 38 -45 35 -39
-4 -41 -43 -8 -138 14 -41 29 -91 34 -110 4 -19 12 -44 18 -55 17 -30 43 -137
43 -173 0 -49 44 -91 103 -98 38 -6 51 -3 68 12 28 24 59 97 59 135 0 17 7 43
15 59 21 40 20 301 -1 341 -20 40 -19 243 1 283 21 39 21 233 0 283 -20 47
-19 147 2 203 10 29 19 97 23 190 7 145 7 145 -21 206 -37 81 -76 105 -175
110 -91 4 -138 -9 -164 -46 -12 -16 -41 -53 -66 -82 -24 -28 -44 -59 -44 -68
0 -21 -31 -50 -52 -50 -25 0 -116 116 -124 156 -5 28 -2 40 17 60 12 13 27 24
33 24 6 0 25 8 41 17 17 9 53 19 80 23 139 20 330 73 395 110 14 8 34 19 45
25 20 11 23 18 48 125 14 62 14 67 -6 115 -11 28 -23 54 -27 58 -4 5 -52 13
-107 18 -55 5 -122 16 -149 24 -58 18 -87 18 -134 2z m116 -789 c32 -39 46
-69 64 -147 16 -67 17 -78 4 -104 -21 -40 -41 -44 -72 -14 -15 15 -42 32 -61
38 -48 17 -65 -4 -67 -83 -2 -96 -2 -97 -30 -124 -24 -25 -26 -25 -45 -8 -15
14 -19 30 -19 88 0 78 14 132 55 216 35 73 69 120 103 141 36 23 45 23 68 -3z"/>
<path d="M18807 3405 c-117 -41 -141 -172 -63 -345 21 -47 43 -103 48 -125 5
-22 16 -59 23 -82 12 -37 12 -51 -1 -100 -27 -106 -95 -166 -196 -176 -35 -3
-117 -20 -183 -36 -131 -34 -172 -37 -273 -20 -130 22 -192 -19 -192 -127 0
-84 26 -129 105 -180 27 -17 55 -19 286 -24 195 -4 260 -8 272 -19 21 -16 47
-68 47 -91 0 -28 -51 -133 -80 -165 -15 -16 -47 -51 -70 -78 -85 -94 -231
-178 -347 -197 -143 -24 -163 -32 -199 -74 -56 -66 -37 -127 45 -142 20 -4 53
-16 74 -27 53 -27 151 -34 201 -13 21 9 48 16 60 16 34 0 187 59 221 85 78 60
128 119 160 188 18 40 40 78 49 86 9 7 25 43 36 80 29 97 50 127 97 136 37 7
39 6 102 -62 35 -37 114 -129 175 -203 61 -74 148 -173 193 -220 45 -47 106
-114 135 -150 48 -57 60 -66 102 -74 33 -7 62 -6 97 3 40 11 63 11 107 1 37
-7 126 -10 248 -8 172 3 194 5 213 22 12 11 21 31 21 47 0 53 -17 77 -77 109
-99 52 -206 118 -286 177 -20 15 -56 42 -80 58 -74 53 -180 140 -251 209 -38
36 -75 66 -82 66 -23 0 -263 161 -272 183 -2 4 -9 13 -16 20 -47 49 -93 159
-81 195 12 35 114 122 143 122 4 0 25 9 47 20 22 11 49 20 61 20 13 0 35 5 51
11 15 6 66 15 112 19 106 11 121 24 121 97 0 61 -18 103 -54 126 -13 9 -28 27
-31 39 -16 50 -33 58 -122 58 -88 0 -149 -17 -159 -45 -3 -8 -14 -15 -23 -15
-9 0 -41 -12 -71 -26 -64 -30 -93 -26 -115 16 -14 28 -14 33 4 73 11 24 27 50
36 57 9 8 30 40 46 72 36 72 39 158 8 251 -26 76 -42 95 -88 102 -36 6 -60 15
-158 54 -59 24 -121 26 -176 6z"/>
<path d="M13935 3310 c-38 -10 -107 -19 -152 -19 -66 -1 -86 -5 -98 -18 -9
-10 -29 -33 -45 -51 -28 -30 -30 -39 -30 -107 0 -85 4 -91 87 -132 52 -25 70
-28 180 -31 l121 -4 52 55 c58 61 75 90 96 159 14 45 13 105 -1 129 -12 18
-71 39 -107 38 -18 -1 -64 -9 -103 -19z"/>
<path d="M8190 3300 c-14 -5 -53 -8 -88 -9 -75 -1 -173 -32 -219 -69 -119 -96
-114 -89 -111 -156 l3 -61 60 -40 c76 -52 82 -77 30 -134 -20 -22 -53 -45 -73
-51 -138 -43 -197 -87 -213 -161 -16 -69 22 -108 89 -90 20 6 58 13 83 16 25
3 77 22 116 43 170 89 231 123 273 151 l45 31 160 0 c171 0 222 10 276 53 15
12 39 30 53 40 28 19 35 64 14 85 -16 16 -99 15 -145 -2 -21 -7 -73 -24 -115
-36 -73 -22 -78 -22 -102 -6 -14 9 -26 22 -26 29 0 7 29 40 64 74 l65 62 -3
54 c-5 75 -52 140 -116 161 -66 21 -92 24 -120 16z"/>
<path d="M825 3153 c-41 -5 -75 -26 -75 -48 0 -7 -7 -18 -15 -25 -11 -9 -15
-35 -15 -104 0 -74 6 -109 29 -182 33 -102 32 -127 -12 -204 -31 -55 -101 -98
-205 -130 -39 -12 -75 -26 -78 -31 -3 -5 -13 -9 -24 -9 -10 0 -32 -13 -49 -29
-36 -34 -40 -72 -15 -157 17 -61 56 -97 114 -108 114 -22 185 -52 232 -96 l48
-46 -6 -69 c-4 -42 -18 -96 -34 -135 -15 -36 -30 -78 -34 -93 -4 -18 -23 -39
-53 -60 -26 -18 -68 -51 -94 -74 -25 -24 -68 -52 -95 -64 -27 -12 -71 -42 -97
-68 l-48 -46 -102 0 c-122 0 -144 -10 -169 -79 -19 -52 -16 -70 27 -134 30
-46 45 -90 54 -157 5 -41 11 -53 38 -71 70 -47 168 -38 226 20 14 14 32 26 39
26 8 0 37 16 67 35 29 19 57 35 62 35 5 0 28 17 52 38 23 21 60 51 82 67 55
41 244 225 250 244 8 26 81 68 151 87 68 18 104 48 104 86 0 10 15 33 33 49
30 28 32 34 32 97 1 58 45 308 60 331 2 5 30 105 60 222 69 266 99 375 116
416 11 28 10 43 -5 105 -28 114 -58 186 -94 229 -37 43 -145 101 -233 124 -51
14 -223 18 -324 8z"/>
<path d="M14233 2985 c-29 -13 -63 -35 -75 -48 -13 -14 -65 -46 -116 -71 -50
-26 -92 -50 -92 -54 0 -34 -376 -146 -615 -183 -99 -15 -115 -27 -113 -88 2
-71 13 -78 118 -75 69 2 96 7 117 22 39 26 127 55 208 69 36 6 118 33 200 66
33 13 80 27 104 31 24 4 58 16 74 28 18 13 55 25 89 29 39 5 72 16 97 33 23
16 51 26 73 26 60 0 95 21 123 75 39 72 26 111 -51 145 -55 25 -77 24 -141 -5z"/>
<path d="M12847 2904 c-119 -29 -226 -140 -174 -182 6 -5 45 -12 86 -14 68 -4
75 -6 103 -37 26 -29 30 -40 26 -76 -6 -49 -26 -94 -49 -108 -12 -7 -38 -7
-85 2 -51 10 -76 10 -97 2 -44 -17 -85 -14 -97 8 -5 11 -10 68 -10 128 0 82
-4 114 -16 131 -19 28 -55 28 -80 1 -17 -19 -19 -35 -16 -140 7 -322 -1 -465
-30 -529 -32 -74 -112 -99 -222 -69 -90 24 -138 24 -158 2 -26 -31 -41 -105
-43 -211 -2 -130 0 -133 112 -118 147 19 201 8 187 -38 -3 -12 -28 -54 -55
-94 l-49 -73 0 -93 c0 -103 8 -120 56 -114 15 2 32 12 38 23 6 11 19 32 29 47
9 14 17 33 17 41 0 23 100 269 122 300 11 15 36 37 56 48 21 11 57 33 82 49
25 16 64 39 87 49 23 11 47 29 53 40 17 33 44 25 84 -23 48 -59 61 -122 47
-217 -12 -72 -25 -109 -40 -109 -16 0 -41 37 -47 71 -9 43 -18 55 -52 64 -55
14 -69 -65 -28 -163 13 -31 27 -73 31 -92 4 -19 15 -44 25 -55 9 -11 30 -43
45 -72 42 -79 80 -113 125 -113 43 0 61 17 64 57 1 16 7 44 14 63 14 42 10
562 -6 655 -9 59 -8 62 29 135 56 108 51 150 -17 150 -18 0 -39 3 -48 6 -18 7
-21 45 -6 72 5 9 23 50 41 91 25 61 32 90 33 155 2 70 6 86 29 120 15 21 27
49 27 61 0 40 -30 121 -52 142 -19 18 -91 45 -108 42 -3 -1 -31 -8 -63 -15z
m-221 -569 c22 -30 28 -49 32 -111 4 -62 2 -78 -13 -94 -20 -22 -65 -26 -83
-8 -16 16 -16 220 0 236 20 20 36 14 64 -23z"/>
<path d="M4870 2633 c-14 -2 -87 -20 -164 -39 -106 -27 -168 -50 -270 -100
-72 -35 -161 -72 -198 -80 -109 -25 -111 -30 -105 -249 5 -189 21 -295 57
-366 30 -57 61 -74 146 -75 39 -1 81 -7 94 -14 57 -30 93 -101 89 -178 -1 -20
2 -64 6 -97 l7 -60 -41 -43 c-46 -47 -82 -54 -131 -26 -33 20 -60 13 -60 -17
0 -48 159 -237 245 -290 57 -36 147 -18 205 40 40 40 51 72 55 166 2 44 11
102 20 130 13 37 15 61 9 100 -4 27 -9 118 -9 200 -1 83 -7 168 -13 190 -7 22
-12 45 -12 52 0 21 42 53 69 53 14 0 41 9 59 20 29 18 32 24 32 71 0 60 26
156 48 182 9 10 48 39 87 64 75 50 209 175 251 235 30 42 27 67 -14 111 l-26
27 -205 -1 c-113 -1 -217 -4 -231 -6z m-174 -300 c-7 -29 -22 -44 -100 -103
-26 -19 -65 -50 -87 -67 -44 -35 -59 -39 -90 -23 -14 8 -19 21 -19 49 0 42 4
47 65 82 95 53 175 86 214 88 20 1 22 -2 17 -26z"/>
<path d="M21868 2600 c-26 -11 -82 -41 -125 -68 -113 -71 -278 -124 -408 -131
-135 -8 -157 -22 -153 -94 3 -46 7 -54 37 -74 53 -36 105 -31 218 22 101 47
142 55 163 30 10 -13 9 -19 -6 -36 -14 -15 -19 -42 -24 -110 l-5 -91 -45 -38
c-54 -46 -69 -49 -340 -58 -196 -7 -231 -14 -244 -48 -10 -26 -7 -62 8 -98 12
-28 25 -38 86 -61 l72 -28 122 23 c66 13 152 32 190 42 91 26 166 18 201 -20
14 -15 25 -34 26 -42 4 -55 -3 -131 -15 -165 -16 -46 -84 -105 -122 -105 -14
0 -42 -9 -64 -20 -43 -22 -85 -25 -125 -10 -43 17 -135 16 -145 0 -29 -46 4
-152 75 -245 38 -51 170 -166 217 -191 76 -40 192 -6 257 75 20 26 42 53 49
61 25 29 65 96 86 140 16 35 22 78 29 190 8 152 9 165 5 308 -4 107 11 138 69
147 21 4 72 19 113 33 59 20 96 26 173 27 87 2 100 4 122 25 31 29 31 39 0
100 -30 59 -52 75 -131 96 -69 18 -91 15 -182 -25 -75 -33 -179 -61 -223 -61
-29 0 -69 30 -69 51 0 9 68 85 201 225 22 23 56 46 78 52 55 17 89 47 97 86 9
49 -7 70 -69 89 -69 22 -140 21 -199 -3z"/>
<path d="M8222 2531 c-24 -12 -81 -48 -126 -81 -46 -32 -112 -72 -147 -87 -35
-14 -72 -35 -82 -45 -12 -12 -32 -18 -62 -18 -49 0 -57 -9 -70 -70 -7 -34 -54
-151 -113 -280 -35 -79 -86 -233 -103 -315 -7 -33 -22 -80 -34 -105 -31 -64
-38 -147 -14 -171 54 -54 117 -26 191 86 29 44 63 100 74 125 12 25 38 80 58
123 27 56 42 104 52 175 25 168 40 206 106 278 47 51 77 56 113 19 27 -26 29
-33 26 -110 -2 -27 3 -63 9 -80 7 -16 12 -70 11 -120 -2 -191 40 -335 116
-392 20 -15 51 -42 68 -59 45 -47 224 -150 311 -180 72 -24 81 -25 133 -14 31
6 66 16 79 21 13 5 46 9 74 9 45 0 54 4 82 34 55 58 60 94 31 236 -16 75 -35
141 -50 166 -13 22 -31 74 -39 113 -17 82 -49 141 -76 141 -22 0 -30 -27 -30
-102 0 -74 -27 -177 -53 -205 -27 -30 -53 -29 -178 11 -188 60 -230 100 -272
256 -53 190 -52 198 47 395 42 84 76 163 76 176 0 13 -11 37 -24 53 -20 26
-31 30 -82 33 -44 3 -70 -1 -102 -16z m-482 -572 c0 -23 -6 -62 -14 -88 -8
-25 -18 -59 -23 -76 -11 -38 -39 -44 -54 -12 -18 39 14 161 49 192 37 33 42
31 42 -16z"/>
<path d="M10277 2492 c-43 -22 -52 -23 -92 -13 -63 16 -121 14 -139 -5 -9 -8
-16 -30 -16 -47 0 -51 28 -169 43 -185 13 -12 81 -18 158 -13 16 1 79 83 79
104 0 7 18 44 41 81 62 104 34 134 -74 78z"/>
<path d="M13900 2446 c-19 -15 -38 -33 -42 -40 -4 -8 -32 -30 -62 -50 -31 -20
-58 -41 -61 -46 -12 -20 -65 -11 -87 15 -41 47 -151 63 -191 28 -17 -16 -19
-27 -14 -93 3 -41 13 -93 22 -115 29 -66 7 -245 -41 -334 -13 -25 -24 -51 -24
-58 0 -24 -34 -83 -51 -88 -25 -8 -130 -78 -161 -108 -32 -30 -37 -72 -10 -85
18 -10 94 -2 181 18 63 14 118 59 156 128 33 59 111 247 124 298 21 83 43 160
52 175 11 22 124 99 144 99 26 0 35 -45 31 -172 -3 -121 -1 -142 29 -321 17
-101 26 -115 143 -232 39 -40 72 -77 72 -83 0 -6 22 -18 50 -27 27 -9 52 -21
55 -25 14 -23 139 -50 229 -50 l91 0 54 47 54 47 -6 121 c-4 66 -13 145 -21
175 -8 30 -17 72 -20 93 -7 40 -39 77 -66 77 -27 0 -57 -41 -75 -105 -22 -77
-56 -122 -113 -147 -44 -20 -46 -20 -101 -2 -31 10 -70 30 -87 44 -17 14 -47
37 -66 52 -36 27 -36 28 -73 178 -17 71 -17 259 1 329 10 39 24 64 49 87 19
17 35 38 35 47 0 8 9 26 21 41 45 58 3 97 -111 104 -69 3 -78 1 -110 -22z"/>
<path d="M5120 1799 c-59 -26 -80 -47 -80 -76 0 -30 67 -147 119 -207 21 -25
47 -66 57 -93 22 -62 46 -87 108 -118 37 -19 65 -25 110 -24 34 0 69 3 78 7
18 8 78 86 78 102 0 6 10 32 23 58 18 39 22 64 22 147 0 115 -11 139 -80 173
-109 54 -346 71 -435 31z"/>
<path d="M3679 1348 c-18 -15 -84 -232 -75 -246 3 -5 11 -45 17 -88 7 -51 16
-82 27 -91 9 -7 45 -13 78 -13 53 0 65 4 88 26 14 15 26 31 26 37 0 6 6 18 13
26 7 9 21 36 32 61 10 25 32 59 49 75 53 50 98 114 92 130 -3 9 -19 15 -39 15
-19 0 -60 10 -93 21 -182 66 -190 67 -215 47z"/>
<path d="M2804 546 c-18 -14 -19 -28 -19 -266 0 -238 1 -252 19 -266 26 -18
51 -18 70 2 14 13 16 51 16 264 0 213 -2 251 -16 264 -19 20 -44 20 -70 2z"/>
<path d="M3786 538 c-13 -19 -16 -61 -16 -258 0 -256 5 -280 55 -280 42 0 55
34 55 147 l0 103 120 0 120 0 0 -108 c0 -93 3 -111 18 -125 25 -22 48 -21 72
3 19 19 20 33 20 260 0 227 -1 241 -20 260 -25 25 -52 26 -73 2 -13 -15 -17
-39 -17 -110 l0 -92 -120 0 -120 0 0 88 c0 98 -14 132 -55 132 -13 0 -31 -10
-39 -22z"/>
<path d="M5284 550 c-23 -9 -36 -38 -149 -322 -36 -91 -65 -172 -65 -180 0
-25 37 -51 63 -44 23 5 39 32 67 109 l10 28 112 -3 112 -3 21 -53 c29 -72 47
-89 82 -76 21 7 29 17 31 39 4 38 -171 473 -200 498 -22 18 -50 21 -84 7z m75
-208 c19 -53 36 -103 39 -109 3 -10 -17 -13 -78 -13 -61 0 -81 3 -78 13 3 6
20 56 39 109 19 54 36 98 39 98 3 0 20 -44 39 -98z"/>
<path d="M6441 534 c-20 -25 -21 -39 -21 -259 0 -214 2 -235 19 -256 16 -20
23 -22 47 -14 l29 10 5 180 5 180 123 -182 c128 -191 146 -208 196 -185 32 14
36 44 36 286 0 226 -6 258 -48 264 -48 7 -52 -7 -52 -194 0 -96 -3 -174 -7
-174 -5 0 -57 74 -116 164 -60 90 -117 173 -128 185 -27 29 -63 27 -88 -5z"/>
<path d="M7920 546 c-125 -33 -190 -124 -190 -266 0 -119 46 -202 137 -247 50
-24 69 -28 143 -28 74 1 94 5 153 32 80 38 90 57 85 157 -5 90 -14 96 -133 96
-94 0 -115 -8 -115 -42 0 -25 31 -38 94 -38 l56 0 0 -40 c0 -38 -3 -42 -42
-60 -61 -28 -145 -27 -188 3 -63 43 -75 69 -75 167 0 74 3 93 21 117 35 46 82
73 131 73 55 0 92 -19 127 -64 52 -68 128 -33 96 44 -36 86 -174 131 -300 96z"/>
<path d="M11226 538 c-13 -18 -16 -54 -16 -188 0 -197 12 -252 65 -298 61 -54
206 -66 292 -25 84 39 106 116 101 350 -3 139 -5 156 -22 169 -26 18 -51 18
-70 -2 -13 -13 -16 -44 -16 -185 0 -183 -8 -222 -51 -253 -27 -19 -97 -21
-133 -5 -47 22 -56 61 -56 246 0 184 -8 213 -55 213 -13 0 -31 -10 -39 -22z"/>
<path d="M12561 534 c-20 -25 -21 -39 -21 -259 0 -214 2 -235 19 -256 16 -20
23 -22 47 -14 l29 10 5 180 5 180 123 -182 c128 -191 146 -208 196 -185 32 14
36 44 36 286 0 226 -6 258 -48 264 -48 7 -52 -7 -52 -194 0 -96 -3 -174 -7
-174 -5 0 -57 74 -116 164 -60 90 -117 173 -128 185 -27 29 -63 27 -88 -5z"/>
<path d="M13904 546 c-18 -14 -19 -28 -19 -266 0 -238 1 -252 19 -266 26 -18
51 -18 70 2 14 13 16 51 16 264 0 213 -2 251 -16 264 -19 20 -44 20 -70 2z"/>
<path d="M14859 539 c-24 -24 -29 -6 68 -269 92 -250 95 -257 133 -265 70 -15
74 -10 185 293 81 220 83 230 43 256 -11 7 -24 7 -40 -1 -19 -8 -35 -46 -92
-212 -38 -111 -72 -198 -76 -194 -4 4 -35 91 -70 193 -35 102 -70 193 -78 203
-20 23 -47 22 -73 -4z"/>
<path d="M18856 549 c-122 -30 -167 -162 -81 -238 31 -27 107 -57 191 -75 46
-10 74 -41 74 -82 0 -28 -6 -38 -32 -54 -37 -22 -94 -26 -132 -9 -13 6 -36 33
-51 60 -22 41 -31 49 -54 49 -38 0 -55 -22 -47 -61 20 -101 143 -158 279 -129
93 19 147 79 147 162 0 79 -51 129 -160 158 -25 6 -61 15 -80 21 -40 10 -80
42 -80 65 0 8 11 26 25 39 19 20 34 25 72 25 54 0 80 -17 109 -67 14 -25 25
-33 46 -33 74 0 51 112 -33 156 -37 19 -142 26 -193 13z"/>
<path d="M20024 546 c-18 -14 -19 -28 -19 -266 0 -238 1 -252 19 -266 26 -18
51 -18 70 2 14 13 16 51 16 264 0 213 -2 251 -16 264 -19 20 -44 20 -70 2z"/>
<path d="M22218 549 c-33 -19 -19 -58 62 -184 l80 -124 0 -98 c0 -108 13 -143
54 -143 45 0 56 28 56 138 l0 102 79 119 c95 144 100 156 73 183 -37 37 -61
19 -136 -102 l-68 -112 -60 99 c-86 139 -96 148 -140 122z"/>
<path d="M223 535 c-23 -16 -23 -19 -23 -255 0 -291 -13 -270 165 -270 184 1
238 20 271 97 29 67 7 138 -52 169 l-35 19 24 20 c70 57 61 171 -16 212 -47
26 -302 32 -334 8z m271 -86 c33 -26 34 -62 1 -94 -22 -22 -32 -25 -105 -25
l-80 0 0 70 0 70 79 0 c64 0 83 -4 105 -21z m6 -214 c53 -27 53 -103 0 -130
-19 -10 -57 -15 -110 -15 l-80 0 0 80 0 80 80 0 c53 0 91 -5 110 -15z"/>
<path d="M1532 534 c-22 -15 -22 -18 -22 -254 0 -236 0 -239 22 -254 33 -23
359 -23 382 0 20 20 20 38 0 58 -12 13 -41 16 -155 16 l-139 0 0 75 0 75 124
0 c100 0 128 3 140 16 9 8 16 19 16 24 0 5 -7 16 -16 24 -12 13 -40 16 -140
16 l-124 0 0 65 0 65 131 0 c141 0 169 7 169 45 0 14 -8 29 -19 35 -11 6 -90
10 -183 10 -132 0 -168 -3 -186 -16z"/>
<path d="M16182 534 c-22 -15 -22 -18 -22 -254 0 -236 0 -239 22 -254 33 -23
359 -23 382 0 9 8 16 22 16 29 0 7 -7 21 -16 29 -12 13 -41 16 -155 16 l-139
0 0 75 0 75 124 0 c100 0 128 3 140 16 9 8 16 19 16 24 0 5 -7 16 -16 24 -12
13 -40 16 -140 16 l-124 0 0 65 0 65 131 0 c141 0 169 7 169 45 0 14 -8 29
-19 35 -11 6 -90 10 -183 10 -132 0 -168 -3 -186 -16z"/>
<path d="M17453 535 c-23 -16 -23 -19 -23 -259 0 -223 2 -244 18 -259 25 -22
48 -21 72 3 17 17 20 33 20 120 l0 100 39 0 c54 0 88 -31 152 -136 29 -48 62
-90 75 -96 34 -16 74 4 74 35 0 29 -61 132 -105 176 l-34 34 48 22 c59 28 86
76 78 141 -6 54 -27 88 -70 111 -47 26 -311 32 -344 8z m282 -90 c31 -30 33
-75 4 -101 -17 -15 -40 -20 -110 -22 l-89 -4 0 76 0 76 85 0 c78 0 88 -2 110
-25z"/>
<path d="M20968 539 c-24 -13 -23 -56 1 -69 11 -5 49 -10 85 -10 l65 0 3 -216
c3 -200 4 -217 22 -230 26 -18 51 -18 70 2 14 13 16 48 16 230 l0 214 74 0
c76 0 106 13 106 45 0 7 -7 21 -16 29 -13 14 -46 16 -212 16 -115 0 -204 -5
-214 -11z"/>
</g>
</svg>
